<?xml version="1.0" encoding="utf-8"?>
<!-- Generator: Adobe Illustrator 19.2.0, SVG Export Plug-In . SVG Version: 6.00 Build 0)  -->
<svg version="1.1" id="Layer_1" xmlns="http://www.w3.org/2000/svg" xmlns:xlink="http://www.w3.org/1999/xlink" x="0px" y="0px"
	 viewBox="0 0 842 362" style="enable-background:new 0 0 842 362;" xml:space="preserve">
<style type="text/css">
	.Arched_x0020_Green{fill:url(#SVGID_1_);stroke:#FFFFFF;stroke-width:0.25;stroke-miterlimit:1;}
	.st0{fill:#95C11F;}
	.st1{fill:url(#SVGID_2_);}
	.st2{fill:#4C565C;}
	.st3{fill:none;}
	.st4{fill:#9D9D9C;}
	.st5{font-family:'NettoOT-Bold';}
	.st6{font-size:37px;}
</style>
<linearGradient id="SVGID_1_" gradientUnits="userSpaceOnUse" x1="12" y1="482.2813" x2="12.7071" y2="481.5742">
	<stop  offset="0" style="stop-color:#1DA238"/>
	<stop  offset="0.9831" style="stop-color:#24391D"/>
</linearGradient>
<g>
	<path class="st0" d="M584,74.9c-0.1,1.2-0.2,2.4-0.2,3.6c0,10.4,3.8,20.5,11.4,28.1c6.4,6.4,14.6,10.1,23.2,11.1
		c-6.4-8.5-10.1-18.9-10.1-29.7c0-2.4,0.2-4.9,0.6-7.3c-6.4-4-13.8-6-21.3-6C586.5,74.7,585.2,74.8,584,74.9z"/>
	<path class="st0" d="M615.5,80.4c-0.5,2.6-0.7,5.1-0.7,7.6c0,10.6,3.9,20.7,10.6,28.9c-0.1-1-0.1-2-0.1-3c0-11.4,4.2-22.6,12.6-31
		c3.3-3.3,6.9-5.9,10.9-7.9c-0.8-9.6-4.7-18.6-10.9-26C626.4,55.7,617.9,66.8,615.5,80.4z"/>
	<path class="st0" d="M675.3,74.6c-1.2-0.1-2.4-0.2-3.6-0.2c-10.4,0-20.5,3.8-28.1,11.4c-7.6,7.6-11.4,17.7-11.4,28.1
		c0,1.2,0,2.4,0.2,3.7c1.2,0.1,2.4,0.2,3.7,0.2c10.4,0,20.5-3.8,28.1-11.4c7.6-7.6,11.4-17.7,11.4-28.1
		C675.4,77,675.4,75.8,675.3,74.6z"/>
	<linearGradient id="SVGID_2_" gradientUnits="userSpaceOnUse" x1="595.045" y1="136.9576" x2="661.7597" y2="203.6724">
		<stop  offset="0" style="stop-color:#F7A941"/>
		<stop  offset="0.1496" style="stop-color:#F59E39"/>
		<stop  offset="0.4388" style="stop-color:#F28C2E"/>
		<stop  offset="0.7244" style="stop-color:#F08128"/>
		<stop  offset="1" style="stop-color:#F07E26"/>
	</linearGradient>
	<path class="st1" d="M659.9,135.3c-8.4-7.5-19.4-12.1-31.5-12.1c-26.1,0-47.2,21.1-47.2,47.2c0,10.7,3.6,20.5,9.6,28.4
		c1.2,1.6,2.5,3.2,3.9,4.6l33.7,33.7l33.7-33.7c8.3-8.5,13.5-20.2,13.5-33C675.6,156.4,669.5,143.9,659.9,135.3z"/>
</g>
<path class="st2" d="M199.6,177.7l-10.7,36.9c-0.9,3.2-3.9,5.5-7.2,5.5s-6.2-2.2-7.2-5.3l-17.2-54c-0.3-0.6-0.3-1.3-0.3-1.9
	c0-3.5,2.7-6.7,6.6-6.7c2.8,0,5.7,1.8,6.4,4.6l11.5,39.2l10.8-38.3c0.9-3.2,3.9-5.5,7.2-5.5s6.5,3,7.1,5.3l10.8,38.6l11.5-39.2
	c0.8-2.8,3.6-4.6,6.4-4.6c3.5,0,6.6,2.8,6.6,6.7c0,0.6,0,1.3-0.3,1.9l-17.2,53.9c-1,3.2-3.9,5.4-7.1,5.4c-3.4,0-6.3-2.3-7.2-5.4
	L199.6,177.7z"/>
<path class="st2" d="M289.2,158.9c0-3.7,2.8-6.7,6.6-6.7c3.7,0,6.7,3,6.7,6.7v50.1c0,3.6-2.3,6.7-5.7,7.9
	c-6.3,2.2-13.2,3.4-20.3,3.4c-7.5,0-14.2-2.2-19-7c-4.6-4.6-6.8-11.4-6.8-19v-35.3c0-3.7,3-6.7,6.7-6.7c3.6,0,6.6,3,6.6,6.7v36.4
	c0,8,4.6,12.5,12.5,12.5c4.4,0,8.6-0.5,12.6-1.5V158.9z"/>
<path class="st2" d="M354.2,176.9c0-7.9-4.6-12.5-12.6-12.5c-4.3,0-8.5,0.6-12.5,1.7v47.3c0,3.7-3,6.7-6.6,6.7c-3.7,0-6.7-3-6.7-6.7
	v-50c0-3.6,2.2-6.7,5.7-7.9c6.3-2.2,13.2-3.4,20.1-3.4c7.6,0,14.1,2.5,18.7,7.2c4.6,4.6,7.2,11.1,7.2,18.6v35.5c0,3.7-3,6.7-6.7,6.7
	c-3.7,0-6.6-3-6.6-6.7V176.9z"/>
<path class="st2" d="M378.3,178c0-7.5,2.3-14.1,7-18.7c4.8-4.8,11.4-7.1,18.8-7.1c4.4,0,9.2,1.5,12.6,3.4c0-8.4,0-21.7,0-21.7
	c0-3.7,2.8-6.7,6.6-6.7c3.7,0,6.7,3,6.7,6.7v75.1c0,3.6-2.3,6.7-5.7,7.9c-6.4,2.2-13.3,3.4-20.3,3.4c-7.5,0-13.9-2.5-18.7-7.2
	c-4.6-4.6-7.1-11.1-7.1-18.7V178z M416.7,169.1c-3.5-3-8-4.6-12.6-4.6c-7.9,0-12.5,4.6-12.5,12.5v18.4c0,8,4.6,12.5,12.5,12.5
	c4.4,0,8.6-0.5,12.6-1.7V169.1z"/>
<path class="st2" d="M454.7,192.4c0,5.3,0.9,8.8,2.6,11.1c2.2,2.8,5.5,4.4,9.9,4.4c4.9,0,9.5-1.4,13.9-3.4c0.9-0.4,1.8-0.6,2.7-0.6
	c3.2,0,6.3,2.7,6.3,6.1c0,2.5-1,4.6-3.4,5.8c-6.2,3-12.8,4.4-19.6,4.4c-7.5,0-13.9-2.5-18.7-7.2c-4.6-4.6-7.1-11.1-7.1-18.7V178
	c0-7.5,2.5-13.9,7.1-18.6c4.8-4.8,11.2-7.2,18.7-7.2c7.6,0,14.1,2.5,18.7,7.2c4.6,4.6,7.2,11.1,7.2,18.6v6.1c0,4.6-3.7,8.4-8.4,8.4
	H454.7z M479.9,180.2c0-10.7-4.4-15.7-12.6-15.7c-8.1,0-12.5,4.9-12.5,15.7H479.9z"/>
<path class="st2" d="M503.6,171.4c0-11,8.3-19.2,19.2-19.2c3.2,0,6.4,0.4,9.7,1c3.1,0.6,5.3,3.2,5.3,6.3c0,3.5-2.6,6.2-6.3,6.2
	c-0.8,0-1.2,0-2.2-0.3c-2.1-0.5-4.4-1-6.4-1c-3.2,0-5.9,2.7-5.9,5.9v43.1c0,3.7-3,6.7-6.6,6.7c-3.7,0-6.7-3-6.7-6.7V171.4z"/>
<rect x="355.7" y="245.1" class="st3" width="182.7" height="74.6"/>
<text transform="matrix(1 0 0 1 477.4892 271.4241)" class="st4 st5 st6">Hub</text>
</svg>
